<svg
   xmlns:dc="http://purl.org/dc/elements/1.1/"
   xmlns:cc="http://creativecommons.org/ns#"
   xmlns:rdf="http://www.w3.org/1999/02/22-rdf-syntax-ns#"
   xmlns:svg="http://www.w3.org/2000/svg"
   xmlns="http://www.w3.org/2000/svg"
   xmlns:sodipodi="http://sodipodi.sourceforge.net/DTD/sodipodi-0.dtd"
   xmlns:inkscape="http://www.inkscape.org/namespaces/inkscape"
   viewBox="372.0378 287.6409 401.9244 90.4121"
   width="5000"
   height="1211.821178311145"
   preserveAspectRatio="none"
   version="1.1"
   id="svg41"
   sodipodi:docname="propro.svg"
   inkscape:version="0.92.5 (2060ec1f9f, 2020-04-08)">
  <metadata
     id="metadata45">
    <rdf:RDF>
      <cc:Work
         rdf:about="">
        <dc:format>image/svg+xml</dc:format>
        <dc:type
           rdf:resource="http://purl.org/dc/dcmitype/StillImage" />
        <dc:title></dc:title>
      </cc:Work>
    </rdf:RDF>
  </metadata>
  <sodipodi:namedview
     pagecolor="#ffffff"
     bordercolor="#666666"
     borderopacity="1"
     objecttolerance="10"
     gridtolerance="10"
     guidetolerance="10"
     inkscape:pageopacity="0"
     inkscape:pageshadow="2"
     inkscape:window-width="1920"
     inkscape:window-height="1080"
     id="namedview43"
     showgrid="false"
     inkscape:zoom="0.096"
     inkscape:cx="1390.625"
     inkscape:cy="480.91058"
     inkscape:window-x="0"
     inkscape:window-y="0"
     inkscape:window-maximized="0"
     inkscape:current-layer="svg41" />
  <defs
     id="defs2" />
  <style
     id="style4">.a6izo4zJpcolor {fill:#0CE2E7;fill-opacity:1;}.aa5Jg0ZQ5Wj0filter-floo
        {flood-color:#270949;flood-opacity:0.5;}.acvtmB8PaNcolors-0 {fill:#1B1B7D;fill-opacity:1;}.acvtmB8PaNcolors-1
        {fill:#0CE2E7;fill-opacity:1;}.aD6z1nYkhcolor {fill:#1B1B7D;fill-opacity:1;}.aD6z1nYkhstrokeColor-str
        {stroke:#FEB7C7;stroke-opacity:1;}.icon3-str {stroke:#FEB7C7;stroke-opacity:1;}
    </style>
  <g
     transform="translate(0,11.65757)"
     id="g11"
     style="opacity:1">
    <svg
       width="401.92441"
       height="57.036999"
       x="372.03781"
       y="293.3671"
       version="1.1"
       preserveAspectRatio="none"
       viewBox="2.8 -28.56 205.2 29.12"
       id="svg9">
      <g
         class="aD6z1nYkhcolor"
         id="g7"
         style="fill:#1b1b7d;fill-opacity:1">
        <path
           id="id-D6z1nYkh9"
           d="M 35.36,0 H 28.08 L 28,-14.84 20.8,-2.76 H 17.28 L 10.12,-14.44 V 0 H 2.8 v -28 h 6.52 l 9.84,16.16 9.6,-16.16 h 6.52 z m 59.4,-28 h 7.76 V 0 H 96 L 83.64,-14.92 V 0 h -7.76 v -28 h 6.52 l 12.36,14.92 z m 13.36,28 v -28 h 7.92 V 0 Z m 13.56,0 v -28 h 13.24 q 4.6,0 8.16,1.72 3.56,1.72 5.52,4.88 1.96,3.16 1.96,7.4 v 0 q 0,4.24 -1.96,7.4 -1.96,3.16 -5.52,4.88 Q 139.52,0 134.92,0 v 0 z m 7.92,-6.32 h 5 q 3.6,0 5.78,-2.04 2.18,-2.04 2.18,-5.64 v 0 q 0,-3.6 -2.18,-5.64 -2.18,-2.04 -5.78,-2.04 v 0 h -5 z M 175.28,0 173.08,-5.44 H 161.24 L 159.04,0 h -8.08 l 12.36,-28 h 7.8 l 12.4,28 z m -11.72,-11.28 h 7.2 l -3.6,-8.96 z M 195.6,0.56 q -3.4,0 -6.6,-0.84 -3.2,-0.84 -5.2,-2.24 v 0 l 2.6,-5.84 q 1.88,1.24 4.36,2 2.48,0.76 4.88,0.76 v 0 q 4.56,0 4.56,-2.28 v 0 q 0,-1.2 -1.3,-1.78 -1.3,-0.58 -4.18,-1.22 v 0 q -3.16,-0.68 -5.28,-1.46 -2.12,-0.78 -3.64,-2.5 -1.52,-1.72 -1.52,-4.64 v 0 q 0,-2.56 1.4,-4.62 1.4,-2.06 4.18,-3.26 2.78,-1.2 6.82,-1.2 v 0 q 2.76,0 5.44,0.62 2.68,0.62 4.72,1.82 v 0 l -2.44,5.88 q -4,-2.16 -7.76,-2.16 v 0 q -2.36,0 -3.44,0.7 -1.08,0.7 -1.08,1.82 v 0 q 0,1.12 1.28,1.68 1.28,0.56 4.12,1.16 v 0 q 3.2,0.68 5.3,1.46 2.1,0.78 3.64,2.48 1.54,1.7 1.54,4.62 v 0 q 0,2.52 -1.4,4.56 -1.4,2.04 -4.2,3.26 -2.8,1.22 -6.8,1.22 z"
           inkscape:connector-curvature="0" />
      </g>
    </svg>
  </g>
  <g
     transform="rotate(90,502.16581,293.46969)"
     id="g39"
     style="opacity:1">
    <svg
       width="68.489403"
       height="63.109699"
       x="507.9946"
       y="287.6409"
       version="1.1"
       preserveAspectRatio="none"
       viewBox="19.999218 27 160.0006 147.433"
       id="svg37">
      <g
         id="g35">
        <g
           id="g33">
          <path
             d="m 35.731,138.136 11.749,20.351 a 31.89,31.89 0 0 0 27.618,15.946 h 24.443 l -42.26,-73.939 z"
             data-color="1"
             class="acvtmB8PaNcolors-0"
             id="path13"
             inkscape:connector-curvature="0"
             style="fill:#1b1b7d;fill-opacity:1" />
          <path
             d="m 163.509,63.103 -42.694,74.254 43.227,0.106 11.418,-19.776 a 33.884,33.884 0 0 0 0.001,-33.883 z"
             data-color="1"
             class="acvtmB8PaNcolors-0"
             id="path15"
             inkscape:connector-curvature="0"
             style="fill:#1b1b7d;fill-opacity:1" />
          <path
             d="M 45.178,46.957 35.016,64.557 121.244,64.515 99.462,27.026 H 79.699 A 39.863,39.863 0 0 0 45.178,46.957 Z"
             data-color="1"
             class="acvtmB8PaNcolors-0"
             id="path17"
             inkscape:connector-curvature="0"
             style="fill:#1b1b7d;fill-opacity:1" />
          <path
             d="M 34.938,64.189 25.34,80.814 a 39.862,39.862 0 0 0 0,39.863 l 10.309,17.855 42.592,-74.37 z"
             data-color="1"
             class="acvtmB8PaNcolors-0"
             id="path19"
             inkscape:connector-curvature="0"
             style="fill:#1b1b7d;fill-opacity:1" />
          <path
             d="m 99.685,174.433 h 19.691 c 14.241,0 27.4,-7.597 34.521,-19.93 l 10.071,-17.442 -85.746,-0.116 z"
             data-color="1"
             class="acvtmB8PaNcolors-0"
             id="path21"
             inkscape:connector-curvature="0"
             style="fill:#1b1b7d;fill-opacity:1" />
          <path
             d="m 35.731,138.136 11.749,20.351 a 31.89,31.89 0 0 0 27.618,15.946 h 24.443 l -42.26,-73.939 z"
             data-color="2"
             class="acvtmB8PaNcolors-1"
             id="path23"
             inkscape:connector-curvature="0"
             style="opacity:0.4;fill:#0ce2e7;fill-opacity:1" />
          <path
             d="m 99.537,27 42.522,74.082 21.554,-37.642 -9.531,-16.509 A 39.862,39.862 0 0 0 119.56,27 Z"
             data-color="2"
             class="acvtmB8PaNcolors-1"
             id="path25"
             inkscape:connector-curvature="0"
             style="fill:#0ce2e7;fill-opacity:1" />
          <path
             d="m 163.509,63.103 -42.694,74.254 43.227,0.106 11.418,-19.776 a 33.884,33.884 0 0 0 0.001,-33.883 z"
             data-color="2"
             class="acvtmB8PaNcolors-1"
             id="path27"
             inkscape:connector-curvature="0"
             style="opacity:0.8;fill:#0ce2e7;fill-opacity:1" />
          <path
             d="M 34.938,64.189 25.34,80.814 a 39.862,39.862 0 0 0 0,39.863 l 10.309,17.855 42.592,-74.37 z"
             data-color="2"
             class="acvtmB8PaNcolors-1"
             id="path29"
             inkscape:connector-curvature="0"
             style="opacity:0.2;fill:#0ce2e7;fill-opacity:1" />
          <path
             d="m 99.685,174.433 h 19.691 c 14.241,0 27.4,-7.597 34.521,-19.93 l 10.071,-17.442 -85.746,-0.116 z"
             data-color="2"
             class="acvtmB8PaNcolors-1"
             id="path31"
             inkscape:connector-curvature="0"
             style="opacity:0.6;fill:#0ce2e7;fill-opacity:1" />
        </g>
      </g>
    </svg>
  </g>
</svg>
