      <svg className="loading-icon" xmlns="http://www.w3.org/2000/svg" viewBox="0 0 200 200">
        <g id="g33"><path d="m 35.731,138.136 11.749,20.351 a 31.89,31.89 0 0 0 27.618,15.946 h 24.443 l -42.26,-73.939 z" data-color="1" class="acvtmB8PaNcolors-0" id="path13" inkscape:connector-curvature="0" style="fill: rgb(27, 27, 125); fill-opacity: 1;"></path><path d="m 163.509,63.103 -42.694,74.254 43.227,0.106 11.418,-19.776 a 33.884,33.884 0 0 0 0.001,-33.883 z" data-color="1" class="acvtmB8PaNcolors-0" id="path15" inkscape:connector-curvature="0" style="fill: rgb(27, 27, 125); fill-opacity: 1;"></path><path d="M 45.178,46.957 35.016,64.557 121.244,64.515 99.462,27.026 H 79.699 A 39.863,39.863 0 0 0 45.178,46.957 Z" data-color="1" class="acvtmB8PaNcolors-0" id="path17" inkscape:connector-curvature="0" style="fill: rgb(27, 27, 125); fill-opacity: 1;"></path><path d="M 34.938,64.189 25.34,80.814 a 39.862,39.862 0 0 0 0,39.863 l 10.309,17.855 42.592,-74.37 z" data-color="1" class="acvtmB8PaNcolors-0" id="path19" inkscape:connector-curvature="0" style="fill: rgb(27, 27, 125); fill-opacity: 1;"></path><path d="m 99.685,174.433 h 19.691 c 14.241,0 27.4,-7.597 34.521,-19.93 l 10.071,-17.442 -85.746,-0.116 z" data-color="1" class="acvtmB8PaNcolors-0" id="path21" inkscape:connector-curvature="0" style="fill: rgb(27, 27, 125); fill-opacity: 1;"></path><path d="m 35.731,138.136 11.749,20.351 a 31.89,31.89 0 0 0 27.618,15.946 h 24.443 l -42.26,-73.939 z" data-color="2" class="acvtmB8PaNcolors-1" id="path23" inkscape:connector-curvature="0" style="opacity: 0.4; fill: rgb(12, 226, 231); fill-opacity: 1;"></path><path d="m 99.537,27 42.522,74.082 21.554,-37.642 -9.531,-16.509 A 39.862,39.862 0 0 0 119.56,27 Z" data-color="2" class="acvtmB8PaNcolors-1" id="path25" inkscape:connector-curvature="0" style="fill: rgb(12, 226, 231); fill-opacity: 1;"></path><path d="m 163.509,63.103 -42.694,74.254 43.227,0.106 11.418,-19.776 a 33.884,33.884 0 0 0 0.001,-33.883 z" data-color="2" class="acvtmB8PaNcolors-1" id="path27" inkscape:connector-curvature="0" style="opacity: 0.8; fill: rgb(12, 226, 231); fill-opacity: 1;"></path><path d="M 34.938,64.189 25.34,80.814 a 39.862,39.862 0 0 0 0,39.863 l 10.309,17.855 42.592,-74.37 z" data-color="2" class="acvtmB8PaNcolors-1" id="path29" inkscape:connector-curvature="0" style="opacity: 0.2; fill: rgb(12, 226, 231); fill-opacity: 1;"></path><path d="m 99.685,174.433 h 19.691 c 14.241,0 27.4,-7.597 34.521,-19.93 l 10.071,-17.442 -85.746,-0.116 z" data-color="2" class="acvtmB8PaNcolors-1" id="path31" inkscape:connector-curvature="0" style="opacity: 0.6; fill: rgb(12, 226, 231); fill-opacity: 1;"></path></g>
      </svg>